<svg xmlns="http://www.w3.org/2000/svg" viewBox="0 0 250 250"><defs><style>.cls-1{fill:none;}.cls-2{fill:#fff;}</style></defs><title>twitter</title><g id="Layer_2" data-name="Layer 2"><g id="Logo_FIXED" data-name="Logo FIXED"><rect class="cls-1" width="250" height="250"/><path class="cls-2" d="M78.62,226.569c94.34,0,145.94-78.16,145.94-145.94,0-2.22,0-4.43-.15-6.63A104.36,104.36,0,0,0,250,47.449a102.38,102.38,0,0,1-29.46,8.07,51.47,51.47,0,0,0,22.55-28.37A102.79,102.79,0,0,1,210.52,39.6a51.34,51.34,0,0,0-87.41,46.78A145.62,145.62,0,0,1,17.4,32.789a51.33,51.33,0,0,0,15.88,68.47A50.91,50.91,0,0,1,10,94.839v.65a51.31,51.31,0,0,0,41.15,50.28,51.21,51.21,0,0,1-23.16.88,51.35,51.35,0,0,0,47.92,35.62,102.92,102.92,0,0,1-63.7,22A104.412,104.412,0,0,1,0,203.529a145.21,145.21,0,0,0,78.62,23"/></g></g></svg>