<svg xmlns="http://www.w3.org/2000/svg" viewBox="0 0 82.115 32.574"><defs><style>.cls-1{fill:#fcfcfc;}.cls-2{fill:#2d2d2d;}.cls-3{fill:#fcfbfc;}.cls-4{fill:#868686;}.cls-5{fill:#aaa;}.cls-6{fill:#5a5a5a;}.cls-7{fill:#981c30;}.cls-8{fill:#005490;}.cls-9{fill:#707172;}.cls-10{fill:none;}.cls-11{fill:#0092d1;}.cls-12{fill:#fff;}.cls-13{fill:#9e2432;}</style></defs><title>dsc-logo</title><g id="Layer_2" data-name="Layer 2"><g id="Layer_1-2" data-name="Layer 1"><path class="cls-1" d="M15.584.585c4.988,1.669,9.978,2.575,14.977,4.248-.017.117-.033.253-.051.366l-.919,5.948q-.338,2.187-.676,4.374c-.194,1.251-.39,2.5-.581,3.753-.093.609-.193,1.217-.33,1.818A13.456,13.456,0,0,1,27.1,23.82a9.929,9.929,0,0,1-1.946,2.793,20.109,20.109,0,0,1-3.4,2.778,14.459,14.459,0,0,1-2.054,1.072c-.967.423-1.954.792-2.945,1.151-.359.13-.718.257-1.077.388a.25.25,0,0,1-.086.017.207.207,0,0,1-.071-.013c-1.149-.413-2.3-.822-3.429-1.287a19.664,19.664,0,0,1-2.035-.958A14.787,14.787,0,0,1,7.961,28.34a20.519,20.519,0,0,1-2.009-1.8,10.214,10.214,0,0,1-1.866-2.7,10.8,10.8,0,0,1-.425-1.029,15.791,15.791,0,0,1-.69-2.705c-.164-.991-.312-1.985-.466-2.977q-.247-1.588-.494-3.177-.235-1.522-.469-3.045-.278-1.8-.558-3.6L.617,4.83C5.6,3.162,10.593,2.256,15.584.585m0-.585-.176.059C12.93.888,10.4,1.54,7.958,2.171,5.5,2.807,2.952,3.464.441,4.3L0,4.451l.068.46L.435,7.389v0L.673,8.927c.105.677.214,1.376.32,2.064.079.51.159,1.028.236,1.529s.155,1.01.233,1.516c.15.972.3,1.959.453,2.915l.041.263c.045.288.09.582.134.866.107.694.217,1.411.333,2.117A16.426,16.426,0,0,0,3.138,23a11.412,11.412,0,0,0,.446,1.082,10.77,10.77,0,0,0,1.967,2.85,21.339,21.339,0,0,0,2.063,1.845A15.282,15.282,0,0,0,9.78,30.247a20.011,20.011,0,0,0,2.092.985c1.065.438,2.159.832,3.218,1.212l.234.084a.763.763,0,0,0,.259.046.8.8,0,0,0,.277-.051c.212-.078.429-.155.639-.23l.436-.157c.958-.347,1.982-.728,2.979-1.164a14.887,14.887,0,0,0,2.132-1.114A20.757,20.757,0,0,0,25.544,27,10.523,10.523,0,0,0,27.6,24.055a13.944,13.944,0,0,0,.947-2.839c.145-.637.248-1.269.338-1.857.126-.829.258-1.672.384-2.488.064-.414.131-.843.2-1.264.172-1.114.347-2.247.517-3.342l.159-1.032.919-5.948c.01-.068.02-.14.029-.211s.015-.11.022-.159l.068-.46-.441-.147c-2.52-.843-5.069-1.5-7.535-2.138C20.76,1.539,18.234.887,15.76.059L15.584,0Z"/><path class="cls-2" d="M.617,4.83C5.6,3.162,10.593,2.256,15.584.585c4.988,1.669,9.978,2.575,14.977,4.248-.017.117-.033.253-.051.366l-.919,5.948q-.338,2.187-.676,4.374c-.194,1.251-.39,2.5-.581,3.753-.093.609-.193,1.217-.33,1.818A13.456,13.456,0,0,1,27.1,23.82a9.928,9.928,0,0,1-1.946,2.793,20.109,20.109,0,0,1-3.4,2.778,14.46,14.46,0,0,1-2.054,1.072c-.967.423-1.954.792-2.945,1.151-.359.13-.718.257-1.077.388a.216.216,0,0,1-.157,0c-1.149-.413-2.3-.822-3.429-1.287a19.663,19.663,0,0,1-2.035-.958A14.787,14.787,0,0,1,7.961,28.34a20.52,20.52,0,0,1-2.009-1.8,10.214,10.214,0,0,1-1.866-2.7,10.806,10.806,0,0,1-.425-1.029,15.791,15.791,0,0,1-.69-2.705c-.164-.991-.312-1.985-.466-2.977q-.247-1.588-.494-3.177-.235-1.522-.469-3.045-.278-1.8-.558-3.6Z"/><path d="M15.583,32.351a.536.536,0,0,1-.183-.032l-.235-.084c-1.056-.38-2.148-.772-3.208-1.208a19.8,19.8,0,0,1-2.069-.974A15.062,15.062,0,0,1,7.753,28.6a21.129,21.129,0,0,1-2.041-1.825,10.6,10.6,0,0,1-1.926-2.791,11.19,11.19,0,0,1-.438-1.061,16.2,16.2,0,0,1-.705-2.762c-.116-.7-.226-1.421-.333-2.115-.044-.284-.089-.577-.134-.866l-.04-.258c-.149-.957-.3-1.946-.453-2.919q-.117-.758-.233-1.516t-.236-1.529Q1.055,9.924.894,8.891L.656,7.359v0L.248,4.6l.264-.088c2.5-.838,5.044-1.494,7.5-2.128S12.993,1.1,15.479.271l.105-.035.105.035c2.481.83,5.011,1.483,7.457,2.115,2.462.636,5.007,1.293,7.52,2.133l.263.088-.04.275c-.007.051-.015.107-.022.162s-.019.141-.029.206L29.92,11.2l-.156,1.01q-.26,1.682-.52,3.364-.1.632-.2,1.263c-.127.816-.258,1.659-.385,2.489-.089.584-.191,1.211-.334,1.841A13.724,13.724,0,0,1,27.4,23.96a10.3,10.3,0,0,1-2.011,2.886,20.533,20.533,0,0,1-3.46,2.823,14.673,14.673,0,0,1-2.1,1.1c-.991.434-2.011.813-2.966,1.159l-.435.156c-.21.075-.428.153-.64.231A.583.583,0,0,1,15.583,32.351ZM1.312,7.259,1.55,8.79q.161,1.033.321,2.066.118.765.236,1.53T2.339,13.9c.15.973.3,1.962.453,2.918l.04.258c.045.289.09.583.134.867.106.691.216,1.406.332,2.107A15.537,15.537,0,0,0,3.975,22.7a10.522,10.522,0,0,0,.412,1,9.933,9.933,0,0,0,1.806,2.616,20.51,20.51,0,0,0,1.977,1.766,14.41,14.41,0,0,0,2.041,1.39,19.156,19.156,0,0,0,2,.941c1.046.431,2.131.82,3.18,1.2l.2.07.615-.222.433-.156c.944-.342,1.952-.716,2.925-1.143a14.035,14.035,0,0,0,2.007-1.047,19.869,19.869,0,0,0,3.348-2.732,9.638,9.638,0,0,0,1.881-2.7,13.072,13.072,0,0,0,.886-2.66c.139-.61.238-1.222.326-1.794.127-.831.258-1.675.385-2.491q.1-.631.2-1.263.26-1.682.52-3.364l.156-1.01.919-5.948c0-.027.008-.057.013-.087-2.406-.792-4.849-1.423-7.214-2.033-2.423-.625-4.927-1.272-7.4-2.093-2.473.822-4.979,1.469-7.4,2.1-2.36.609-4.8,1.238-7.193,2.027Z"/><path class="cls-3" d="M15.581,29.255c-.359-.127-.721-.249-1.078-.381-.92-.34-1.842-.677-2.758-1.031a10.892,10.892,0,0,1-2.268-1.177,18.05,18.05,0,0,1-1.662-1.328A11.729,11.729,0,0,1,6.408,23.9a8.305,8.305,0,0,1-1.325-2.364A11.522,11.522,0,0,1,4.66,20.1c-.126-.557-.221-1.12-.3-1.687-.1-.778-.209-1.555-.313-2.333s-.212-1.57-.318-2.355q-.2-1.5-.4-3L2.924,7.718Q2.8,6.8,2.676,5.873c0-.018,0-.036-.007-.064l.478-.154L6.522,4.574q1.392-.445,2.785-.886c.686-.219,1.37-.442,2.056-.661q1.486-.474,2.972-.945.623-.2,1.245-.4l0,.928L15,2.79l-2,.631-2.039.645q-1.2.381-2.4.764-1.139.361-2.279.718l-2.445.775c-.121.038-.241.079-.362.119,0,.035,0,.061.006.086q.111.879.223,1.757.158,1.245.315,2.491.17,1.334.341,2.668.158,1.245.315,2.491c.106.83.215,1.66.318,2.49a15.333,15.333,0,0,0,.449,2.327,8.115,8.115,0,0,0,.909,2.11c.142.225.3.436.457.654a.8.8,0,0,0,.056.082c.194.222.382.451.587.663a17.909,17.909,0,0,0,1.616,1.453,10.2,10.2,0,0,0,1.61,1.086c.425.228.864.424,1.308.608.161.067.325.125.488.187a.116.116,0,0,0,.026.019c.4.152.809.3,1.215.453.621.227,1.243.451,1.864.676Z"/><path class="cls-4" d="M15.581,29.255v-.52c0-.058.214-.076.252-.088.514-.159.975-.354,1.435-.527,1.194-.451,1.79-.629,2.679-1.054a9.173,9.173,0,0,0,1.764-1.042c.265-.2.52-.406.768-.624.3-.266.612-.528.906-.805.219-.207.422-.433.626-.656a7.068,7.068,0,0,0,.849-1.147,6.274,6.274,0,0,0,.548-1.115c.1-.286.2-.572.3-.862a9.493,9.493,0,0,0,.281-1.167c.051-.27.094-.541.135-.812.029-.187.048-.376.073-.564.033-.254.068-.508.1-.762q.041-.315.081-.63.048-.376.094-.752c.025-.2.049-.4.074-.6s.053-.405.079-.608.048-.4.073-.6.054-.42.081-.63.049-.391.073-.586.053-.405.079-.608.047-.4.073-.6c.032-.251.069-.5.1-.751s.061-.524.094-.786.071-.545.106-.818c.024-.188.047-.376.072-.564.034-.262.069-.523.1-.785s.06-.517.093-.775.069-.5.1-.751c.01-.076.015-.152.023-.23l-.407-.128c-.477-.153-.954-.307-1.432-.458q-.8-.253-1.6-.5c-.062-.019-.126-.031-.189-.046-.1-.036-.195-.075-.294-.106-.533-.169-1.066-.335-1.6-.5L20.68,4.225l-1.95-.62-1.837-.58-1.287-.406-.03-.01,0-.928c.141.039.284.074.423.118.212.067.421.144.633.212.318.1.638.2.957.3.282.089.564.176.845.266.4.127.794.258,1.192.385l.907.289,1.564.5q.561.179,1.122.36l1.253.4c.326.1.653.205.979.311.422.136.842.276,1.264.411.371.119.743.234,1.114.352l.5.16.119.04s-.535,4.024-.8,5.978v.005l-.053.387q-.228,1.668-.451,3.336-.126.939-.242,1.878c-.02.139-.043.277-.062.416a20.325,20.325,0,0,1-.569,3.206c-.081.265-.174.526-.276.783a8.073,8.073,0,0,1-1.14,2.007A11.462,11.462,0,0,1,23.174,25.5c-.354.3-.71.6-1.076.878a9.853,9.853,0,0,1-1.977,1.173c-.753.342-1.527.63-2.3.911l-2.122.767A.931.931,0,0,1,15.581,29.255Z"/><path class="cls-5" d="M2.585,10.053s1.064,8.038,1.173,8.735A14.455,14.455,0,0,0,4.494,21.7a8.967,8.967,0,0,0,1.813,2.932,16.413,16.413,0,0,0,1.509,1.411A19.894,19.894,0,0,0,9.61,27.414a14.283,14.283,0,0,0,2.041,1.11c1.208.544,2.452.993,3.7,1.44.065.023.227.071.227.071l-.005,1.133-.1-.038c-.308-.109-.616-.22-.924-.332-.7-.256-1.41-.508-2.113-.769A18.129,18.129,0,0,1,9.8,28.86a12.446,12.446,0,0,1-1.78-1.253,19.787,19.787,0,0,1-1.7-1.543,8.978,8.978,0,0,1-1.949-3.055c-.131-.346-.253-.7-.358-1.051s-.455-1.679-.523-2.029c-.11-.571-.41-2.282-.523-3.058-.12-.82-.223-1.665-.343-2.485-.114-.776-.638-4.17-.638-4.17Z"/><path class="cls-6" d="M28.55,10.053s-1.064,8.038-1.173,8.735a14.455,14.455,0,0,1-.735,2.911,8.967,8.967,0,0,1-1.813,2.932,16.413,16.413,0,0,1-1.509,1.411,19.894,19.894,0,0,1-1.794,1.372,14.283,14.283,0,0,1-2.041,1.11c-1.208.544-2.452.993-3.7,1.44-.065.023-.227.071-.227.071l.005,1.133.1-.038c.308-.109.616-.22.924-.332.7-.256,1.41-.508,2.113-.769a18.129,18.129,0,0,0,2.636-1.169,12.446,12.446,0,0,0,1.78-1.253,19.787,19.787,0,0,0,1.7-1.543,8.978,8.978,0,0,0,1.949-3.055c.131-.346.253-.7.358-1.051s.455-1.679.523-2.029c.11-.571.41-2.282.523-3.058.12-.82.223-1.665.343-2.485.114-.776.638-4.17.638-4.17Z"/><path class="cls-7" d="M15.577,2.609l.03.01-.029.1a1.1,1.1,0,0,0-.052.1q-.23.544-.458,1.089Q14.533,5.175,14,6.444q-.7,1.676-1.408,3.352-.672,1.6-1.346,3.2-.709,1.686-1.416,3.373Q9.063,18.184,8.3,20q-.536,1.275-1.072,2.55c-.136.322-.274.643-.411.964-.153-.218-.316-.429-.457-.654a8.115,8.115,0,0,1-.909-2.11A15.333,15.333,0,0,1,5,18.426c-.1-.83-.212-1.66-.318-2.49s-.209-1.661-.315-2.491q-.17-1.334-.341-2.668-.158-1.245-.315-2.491Q3.6,7.407,3.485,6.529c0-.025,0-.051-.006-.086.122-.04.242-.08.362-.119l2.445-.775q1.139-.36,2.279-.718,1.2-.381,2.4-.764l2.039-.645,2-.631Z"/><path class="cls-8" d="M15.582,28.747a11.431,11.431,0,0,1,.082-1.238l0-.016q.032-.3.07-.6.048-.376.1-.75.058-.4.121-.8.066-.416.136-.831t.146-.846q.075-.422.153-.844T16.549,22q.076-.394.154-.788.073-.367.148-.734.068-.332.139-.663.061-.287.125-.574.052-.235.107-.469c.027-.116.055-.231.085-.346.017-.067.035-.134.057-.2a.379.379,0,0,1,.019-.049l.683-1.311.517-1L19.3,14.5l.487-.936.693-1.33.487-.935.718-1.38.487-.936q.354-.68.707-1.361c.147-.283.291-.567.437-.85L23.5,6.4l.565-1.1c.063.015.127.027.189.046q.8.249,1.6.5c.478.151.955.306,1.432.458l.407.128c-.008.077-.013.154-.023.23-.033.25-.07.5-.1.751s-.061.517-.093.775-.068.523-.1.785c-.024.188-.047.376-.072.564-.035.273-.072.545-.106.818s-.061.524-.094.786-.068.5-.1.751c-.026.2-.048.4-.073.6s-.053.405-.079.608-.049.391-.073.586-.055.42-.081.63-.048.4-.073.6-.053.405-.079.608-.05.4-.074.6q-.047.376-.094.752-.04.315-.081.63c-.033.254-.068.508-.1.762-.025.188-.044.376-.073.564-.042.271-.085.542-.135.812a9.493,9.493,0,0,1-.281,1.167c-.093.289-.194.576-.3.862a6.274,6.274,0,0,1-.548,1.115,7.068,7.068,0,0,1-.849,1.147c-.2.223-.407.449-.626.656-.294.277-.6.539-.906.805a10.46,10.46,0,0,1-2.412,1.618c-.917.434-1.877.783-2.83,1.128-.383.139-.657.251-1.059.386C16.006,28.592,15.582,28.739,15.582,28.747Z"/><path class="cls-9" d="M20.7,26.7l.068-.039Z"/><path class="cls-9" d="M15.754,28.694l.048-.019Z"/><path class="cls-9" d="M20.653,26.721l.024-.019Z"/><path class="cls-9" d="M20.611,26.744l.023-.018Z"/><path class="cls-9" d="M20.413,26.855l.024-.019Z"/><path class="cls-10" d="M15,2.79l-2,.631-2.039.645q-1.2.381-2.4.764-1.139.361-2.279.718l-2.445.775c-.121.038-.241.079-.362.119,0,.035,0,.061.006.086q.111.879.223,1.757.158,1.245.315,2.491.17,1.334.341,2.668.158,1.245.315,2.491c.106.83.215,1.66.318,2.49a15.333,15.333,0,0,0,.449,2.327,8.115,8.115,0,0,0,.909,2.11c.124.2.264.384.4.574l8.8-20.822Z"/><path class="cls-3" d="M6.355,22.864a8.115,8.115,0,0,1-.909-2.11A15.333,15.333,0,0,1,5,18.426c-.1-.83-.212-1.66-.318-2.49s-.209-1.661-.315-2.491q-.17-1.334-.341-2.668-.158-1.245-.315-2.491Q3.6,7.407,3.485,6.529c0-.025,0-.051-.006-.086.122-.04.242-.08.362-.119l2.445-.775q1.139-.36,2.279-.718,1.2-.381,2.4-.764l2.039-.645,2-.631.553-.175.007-.016.012,0,0-.922q-.623.2-1.245.4-1.486.473-2.972.945c-.686.219-1.37.442-2.056.661q-1.392.445-2.785.886L3.147,5.656l-.478.154c0,.027,0,.046.007.064q.124.922.248,1.844l.406,3.011q.2,1.5.4,3,.159,1.177.318,2.355c.1.777.211,1.555.313,2.333.075.567.17,1.13.3,1.687a11.52,11.52,0,0,0,.422,1.433A8.3,8.3,0,0,0,6.408,23.9l.1.122.247-.584C6.62,23.248,6.479,23.061,6.355,22.864Z"/><path class="cls-3" d="M15.581,29.074l-.072.156.071.025Z"/><path class="cls-11" d="M6.755,23.437l.057.08a.8.8,0,0,0,.056.082c.194.222.382.451.587.663a17.909,17.909,0,0,0,1.616,1.453,10.2,10.2,0,0,0,1.61,1.086c.425.228.864.424,1.308.608.161.067.325.125.488.187a.116.116,0,0,0,.026.019c.4.152.809.3,1.215.453.621.227,1.243.451,1.864.676,0,.109,10.6-22.789,10.6-22.789L15.861,2.7l-.284-.086Z"/><path d="M35.089,12.921a3.458,3.458,0,0,1-.858.219c-1.668.194-2.621.01-3.077-.659-.9-1.326-1.742-2.695-2.708-3.981A15.157,15.157,0,0,0,22.13,3.6c-.556-.235-1.272-.61-1.739-.465A15.5,15.5,0,0,0,13.17,7.8a1.334,1.334,0,0,0-.282.725,5.173,5.173,0,0,1-1.144,2.963,29.92,29.92,0,0,0-1.966,2.918c-.418.648-.946,1.011-1.4,1.757-1.824-1.987-3.007.545-3.372.538-.095.027-.376-.7-.322-1.016.129-.756.332-.74.609-1.265a.832.832,0,0,0-.247-1.247A10.016,10.016,0,0,0,3.708,12.4a3.3,3.3,0,0,0-.835-.129l.679.627a.857.857,0,0,1-.438-.1c-.358-.375-.585-.628-.951-1.039A.987.987,0,0,0,1.987,13a1.826,1.826,0,0,0,1.88.932A4.75,4.75,0,0,1,4.678,14c-.645,1.329-.745,2.04-.416,2.758a.819.819,0,0,0,1.236.336c.443-.284.755-.86,1.257-1.02a1.792,1.792,0,0,1,1.164.41,1.778,1.778,0,0,0-.792,1.957,3.016,3.016,0,0,1,.078,1.087,6.556,6.556,0,0,1-.5,1.35c-.13.292-.442.546-.465.837a5.991,5.991,0,0,1-1.267,3.112c.033.042.065.085.1.129.078.112.149.228.223.343s.171.253.259.377.189.261.288.388a1.374,1.374,0,0,1,.146-.705c.2-.464.541-.87.74-1.334A6.287,6.287,0,0,1,8.428,22c.6-.557,1.223-1.091,1.836-1.636.169.181.409.453.665.711.926.929.957,1.324.351,2.479a.773.773,0,0,0-.107.419c.1.868.216,1.736.351,2.6a2.026,2.026,0,0,0,.467.85,10.525,10.525,0,0,0,1.539.563,6.013,6.013,0,0,0-1.011-1.24,1.742,1.742,0,0,1-.107-1.918c.645-.569,1.316-1.112,1.95-1.692a1.176,1.176,0,0,0,.381-.635c.092-.651.111-1.312.159-1.976,4.116-.122,3.307.065,5.93-1.468a11.508,11.508,0,0,1,1.789-.658c-.35.83-.617,1.537-.95,2.213a1.356,1.356,0,0,1-.231.325c-.03-.1-.514-.9-.79-.9a18.234,18.234,0,0,0-1.879,1.877c.186.215,3.184.913,3.979.116.576-.15,1.039-.261,1.493-.4a.491.491,0,0,0,.255-.222c.508-.909,1.006-1.823,1.5-2.732a4.345,4.345,0,0,1,1.906,2.663.2.2,0,0,0,.063.094c.694.546,2.565.11,2.834-.624a3.811,3.811,0,0,1,.176-3.015,2.675,2.675,0,0,0,.348-1.749,1.7,1.7,0,0,1-.062-.487c.1-.654.649-.813,1.222-.84a3.369,3.369,0,0,0,3.373-2.285Zm-30.977.463a6.441,6.441,0,0,1-1.081-.273,11.472,11.472,0,0,1,1.565.217c.219.059.371.362.554.555l-.077.063A4.483,4.483,0,0,0,4.112,13.384ZM7.925,17.4c.094-.362.757-.577,1.051-.781A10.09,10.09,0,0,0,8.395,18a12.483,12.483,0,0,0-.228,1.667c-.089-.047-.227-.086-.228-.126A7.419,7.419,0,0,1,7.925,17.4ZM7.191,22.8a1.263,1.263,0,0,1,.075-.608c.681-.608,1.187-1.067,1.868-1.675.018.019.626-.242.644-.223C9.132,20.931,7.837,22.154,7.191,22.8Zm19.941-10.83a7.057,7.057,0,0,1,1.44.233c.257.123.371.519.549.794l-.185.138c-.145-1.165-1.353-.526-1.845-1.1Zm-2.675,3.274.815,2.277A2.568,2.568,0,0,1,24.457,15.239ZM14.235,22.714a.176.176,0,0,1-.056.113c-.7.617-1.4,1.231-2.169,1.9a5.065,5.065,0,0,1,.3-.561,1.937,1.937,0,0,1,.38-.4,2.519,2.519,0,0,0,1.126-2.86c-.046-.163.208-.392.323-.59l.208.1C14.311,21.18,14.275,21.947,14.235,22.714Zm-3.533-3.5c.339.017.68.022,1.018.053,1.246.117,2.491.243,3.736.366.1.01.2.024.312.038C15.3,20.158,11.479,19.916,10.7,19.216Zm7.12-1.416.088-2.438.207.005c.036.244.082.487.107.732a1.172,1.172,0,0,0,1.143,1.231c.622.121,1.394.214,2.047.328.381.084,1.048.135,1.042.235C21.3,17.875,18.863,18.4,17.822,17.8Zm3.813-1.288,1.238-1.928C22.967,15.276,22.093,16.631,21.635,16.513Zm1.04,4.7a2.45,2.45,0,0,1-2.616.607c.734-.155,1.437-.3,2.132-.458a.523.523,0,0,0,.29-.239c.481-.833.973-1.662,1.406-2.518a3.774,3.774,0,0,0,.2-1c.06.257.293.643.18.869A25.578,25.578,0,0,1,22.675,21.217Zm.742-.029c-.037-.031.039.008,0-.023.985-.25,1.823-3.185,2.407-2.624C25.019,19.432,24.42,21.726,23.416,21.188Zm2.035-7.616c-1.26-.972-1.012-2.277.47-2.89.273-.113.571-.175.942-.285-.434.722-1.152,1.267.142,1.941.128.066.275.167.422.24.278.138.731.219.8.414a1.492,1.492,0,0,1-.049,1.1.98.98,0,0,1-.866.244A5.42,5.42,0,0,1,25.451,13.572Zm2.209,4.246c-.048.019-.216-.143-.332-.292s-.024-.531-.024-.531a.763.763,0,0,0,.608.6C27.91,17.8,27.764,17.777,27.66,17.818Zm3.114-.627a3.632,3.632,0,0,0-.561,2.132,4.3,4.3,0,0,0,.09,1.1c.107.626-.138.886-.826.82-.047-.065-.072-.6-.121-.669-1.372.032-.685-2.447-.025-3.12-.409-.017-.682-.113-1.107-.13-.855-.562-.484-1.125-.767-1.862l3.4.133C30.851,16.014,31.084,16.791,30.775,17.191Zm.074-1.986-.04-.762-1.764.395-.1-.155a4.587,4.587,0,0,0,.613-.738,1.22,1.22,0,0,0,.184-.82c-.342-1.163-.753-2.311-1.1-3.333.377.469.886,1.08,1.367,1.71.35.459.662.942.99,1.415a.145.145,0,0,1,.035.072A15.993,15.993,0,0,1,30.849,15.206Zm3.608-1.7c-.726.276-1.455.548-2.2.774-.2.062-.625.025-.676-.077a4.438,4.438,0,0,1-.234-1.1,4.136,4.136,0,0,0,3.34.075A.464.464,0,0,1,34.457,13.505Z"/><path class="cls-12" d="M25.908,10.691c-1.482.613-1.73,1.918-.47,2.89a5.42,5.42,0,0,0,1.862.761.654.654,0,0,0,.17.02.916.916,0,0,0,.7-.264,1.492,1.492,0,0,0,.049-1.1c-.07-.195-.524-.276-.8-.414-.147-.073-.294-.174-.422-.24-1.295-.674-.577-1.22-.142-1.941C26.48,10.516,26.181,10.578,25.908,10.691Zm.922,1.966c.048.025.1.058.163.094.08.048.172.1.265.149a3.231,3.231,0,0,0,.341.137,2.164,2.164,0,0,1,.3.123,1.17,1.17,0,0,1-.033.752.886.886,0,0,1-.4.1A.309.309,0,0,1,27.393,14h0a5.116,5.116,0,0,1-1.736-.7,1.38,1.38,0,0,1-.667-1.212,1.533,1.533,0,0,1,1.057-1.078h0l-.025.052a1.007,1.007,0,0,0-.087.681C26.017,12.093,26.3,12.382,26.83,12.657Z"/><path class="cls-12" d="M15.444,19.644c-1.245-.123-2.49-.249-3.736-.366-.338-.032-.679-.036-1.018-.053.5.45,2.259.71,3.576.71a2.739,2.739,0,0,0,1.491-.253C15.643,19.669,15.543,19.654,15.444,19.644Z"/><path class="cls-12" d="M35.693,12.154l-.749.46a3.09,3.09,0,0,1-.743.187,9.317,9.317,0,0,1-1.071.071c-1.149,0-1.507-.33-1.676-.579-.305-.448-.609-.91-.9-1.357-.575-.875-1.17-1.779-1.815-2.638a15.524,15.524,0,0,0-6.459-5.011l-.244-.106a3.793,3.793,0,0,0-1.4-.419,1.135,1.135,0,0,0-.337.048,15.867,15.867,0,0,0-7.381,4.771,1.66,1.66,0,0,0-.367.923,4.837,4.837,0,0,1-1.065,2.772A20.487,20.487,0,0,0,9.956,13.5c-.15.24-.306.489-.461.73a5.613,5.613,0,0,1-.6.74,8.136,8.136,0,0,0-.56.663,2.677,2.677,0,0,0-.515-.357,1.757,1.757,0,0,0-.815-.21,1.683,1.683,0,0,0-.616.12,2.3,2.3,0,0,0-.505.282,4.977,4.977,0,0,0-.717.669l-.046.049q-.01-.031-.02-.064a1.068,1.068,0,0,1-.06-.365,1.344,1.344,0,0,1,.292-.722,3.262,3.262,0,0,0,.281-.439,1.435,1.435,0,0,0,.2-.917,1.029,1.029,0,0,0-.19-.438,1.51,1.51,0,0,0-.366-.343,10.38,10.38,0,0,0-1.388-.8,1.7,1.7,0,0,0-.618-.127c-.1-.008-.206-.017-.32-.033l-.165-.023-.333-.372-.265-.3-.261.3a1.7,1.7,0,0,0-.411.735,1.308,1.308,0,0,0,.166.924A2.281,2.281,0,0,0,3.642,14.3c.086,0,.176,0,.266-.012.024,0,.05,0,.077,0a1.705,1.705,0,0,1,.186.012,5.054,5.054,0,0,0-.4,1.27,2.287,2.287,0,0,0,.185,1.347,1.205,1.205,0,0,0,.436.514,1.129,1.129,0,0,0,.616.18,1.284,1.284,0,0,0,.691-.21,3.211,3.211,0,0,0,.566-.5,1.718,1.718,0,0,1,.607-.48h.022a1.258,1.258,0,0,1,.442.129,2.052,2.052,0,0,0-.473.735,2.324,2.324,0,0,0-.067,1.232l.016.086a2.5,2.5,0,0,1,.064.87,5.622,5.622,0,0,1-.421,1.15l-.056.126a1.66,1.66,0,0,1-.175.271,1.347,1.347,0,0,0-.319.682,3.74,3.74,0,0,1-.822,2.434l-.1.138.177.291a4.967,4.967,0,0,0,.705-1.227,4.686,4.686,0,0,0,.391-1.608c.022-.291.335-.545.465-.837a6.555,6.555,0,0,0,.5-1.35,3.015,3.015,0,0,0-.078-1.087,1.778,1.778,0,0,1,.792-1.957,2.119,2.119,0,0,0-1.038-.427.417.417,0,0,0-.126.017c-.5.16-.814.737-1.257,1.02a.933.933,0,0,1-.5.154.8.8,0,0,1-.734-.49c-.329-.717-.229-1.428.416-2.758-.251-.024-.482-.088-.7-.088-.036,0-.23-.021-.307-.021A1.8,1.8,0,0,1,2,13a.987.987,0,0,1,.175-1.228c.366.411.593.664.951,1.039a.875.875,0,0,0,.39.1.346.346,0,0,0,.049,0l-.679-.627a3.3,3.3,0,0,1,.835.129,10.016,10.016,0,0,1,1.341.771.832.832,0,0,1,.247,1.247c-.277.526-.48.509-.609,1.265a1.587,1.587,0,0,0,.317,1.017h.007c.263,0,.946-1.3,1.984-1.3a1.926,1.926,0,0,1,1.386.761c.451-.746.979-1.109,1.4-1.757A29.919,29.919,0,0,1,11.755,11.5,5.173,5.173,0,0,0,12.9,8.536a1.334,1.334,0,0,1,.282-.725A15.5,15.5,0,0,1,20.4,3.145a.783.783,0,0,1,.233-.032,4.608,4.608,0,0,1,1.506.5,15.158,15.158,0,0,1,6.315,4.9c.966,1.286,1.8,2.655,2.708,3.981a2.18,2.18,0,0,0,1.965.732,9.727,9.727,0,0,0,1.112-.073,3.458,3.458,0,0,0,.858-.219l.776-.477A3.369,3.369,0,0,1,32.5,14.737c-.573.027-1.125.186-1.222.84a1.7,1.7,0,0,0,.062.487,2.675,2.675,0,0,1-.348,1.749,3.811,3.811,0,0,0-.176,3.015c-.185.5-1.129.869-1.926.869a1.491,1.491,0,0,1-.908-.245.2.2,0,0,1-.063-.094,4.345,4.345,0,0,0-1.906-2.663c-.5.909-1,1.823-1.5,2.732a.491.491,0,0,1-.255.222c-.454.135-.917.247-1.493.4a2.064,2.064,0,0,1-1.406.372,6.571,6.571,0,0,1-2.573-.488,18.235,18.235,0,0,1,1.879-1.877h0c.276,0,.756.8.786.9a1.356,1.356,0,0,0,.231-.325c.333-.677.6-1.383.95-2.213a11.509,11.509,0,0,0-1.789.658c-2.622,1.533-1.814,1.346-5.93,1.468-.048.663-.067,1.325-.159,1.976a1.176,1.176,0,0,1-.381.635c-.633.58-1.3,1.123-1.95,1.692a1.742,1.742,0,0,0,.107,1.918,6.213,6.213,0,0,1,1.018,1.267A10.389,10.389,0,0,1,12,27.435a2.026,2.026,0,0,1-.467-.85c-.135-.865-.249-1.733-.351-2.6a.773.773,0,0,1,.107-.419c.606-1.155.575-1.55-.351-2.479-.257-.258-.5-.53-.665-.711-.614.545-1.237,1.079-1.836,1.636a6.287,6.287,0,0,0-1.7,2.02c-.2.464-.347.332-.546.8a5.817,5.817,0,0,0-.285.789l.288.324s.077-.561.1-.612a3.656,3.656,0,0,1,.413-.646,1.359,1.359,0,0,0,.353-.513,5.251,5.251,0,0,1,1.415-1.713l.2-.189c.413-.383.846-.763,1.264-1.131l.308-.271c.131.143.284.309.443.468.435.436.618.7.651.953a2.032,2.032,0,0,1-.362,1.115,1.08,1.08,0,0,0-.144.623c.114.968.229,1.824.353,2.615a2.419,2.419,0,0,0,.229.582c.209.4.347.5.454.539s.21.089.329.142a7.41,7.41,0,0,0,1.265.463l.554.133-.131-.554a3.843,3.843,0,0,0-.953-1.264c-.062-.066-.115-.123-.143-.154a1.432,1.432,0,0,1-.258-.8.941.941,0,0,1,.119-.625c.26-.229.53-.459.791-.681.385-.328.783-.667,1.164-1.016a1.507,1.507,0,0,0,.491-.844c.068-.48.1-.969.125-1.441,0-.08.01-.161.015-.243l.8-.021a12.641,12.641,0,0,0,2.461-.18,6.271,6.271,0,0,0,1.755-.853c.22-.132.47-.281.763-.453a4.882,4.882,0,0,1,1-.39c-.188.458-.367.895-.562,1.308l-.024-.032c-.285-.383-.522-.554-.766-.554h-.012c-.177,0-.337.115-.713.493-.232.233-.5.528-.767.813s-.488.528-.633.669l-.238.23.217.25a.934.934,0,0,0,.45.239,6.525,6.525,0,0,0,.651.171,8.726,8.726,0,0,0,1.736.2,3.911,3.911,0,0,0,.9-.093,1.646,1.646,0,0,0,.672-.312l.371-.1c.384-.1.717-.183,1.051-.283a.837.837,0,0,0,.461-.387c.4-.709.793-1.433,1.176-2.132l.143-.261a4.115,4.115,0,0,1,1.453,2.259.555.555,0,0,0,.181.263,1.809,1.809,0,0,0,1.125.32,3.5,3.5,0,0,0,1.33-.273,1.625,1.625,0,0,0,.924-.825l.041-.112-.035-.113a3.472,3.472,0,0,1,.151-2.746,3.626,3.626,0,0,0,.359-.947,2.755,2.755,0,0,0,.025-1.021c-.009-.057-.02-.11-.031-.161a.808.808,0,0,1-.03-.22.5.5,0,0,1,.258-.4,1.449,1.449,0,0,1,.634-.14,5.485,5.485,0,0,0,1.243-.192,3.807,3.807,0,0,0,1.056-.475,3.535,3.535,0,0,0,1.389-1.852l.322-.927Z"/><path class="cls-12" d="M30.762,17.2c.309-.4.076-1.177.083-1.593l-3.4-.133c.283.736-.088,1.3.767,1.862.426.017.7.113,1.107.13-.656.668-1.338,3.12,0,3.12h.026c.049.068.074.6.121.669q.1.01.2.01c.539,0,.727-.267.631-.83a4.3,4.3,0,0,1-.09-1.1A3.632,3.632,0,0,1,30.762,17.2ZM30,18a5.875,5.875,0,0,0-.125.969c-.008.108-.016.219-.026.328a4.645,4.645,0,0,0,.093,1.195c.046.271,0,.348-.015.361a.281.281,0,0,1-.174.056l0-.026a1.065,1.065,0,0,0-.125-.5l-.108-.15-.184,0h-.018a.327.327,0,0,1-.35-.216,2.043,2.043,0,0,1,.054-1.2,2.88,2.88,0,0,1,.547-1.1l.552-.563-.788-.032a3.955,3.955,0,0,1-.5-.059c-.155-.025-.315-.051-.5-.065a.927.927,0,0,1-.4-.846c-.008-.1-.017-.2-.033-.3l2.621.1c0,.042.01.085.015.129.037.312.087.739-.047.912A2.64,2.64,0,0,0,30,18Z"/><path class="cls-12" d="M7.178,22.8c.646-.641,1.941-1.864,2.588-2.505h0c-.054,0-.582.225-.636.225h0c-.681.608-1.187,1.067-1.868,1.675A1.263,1.263,0,0,0,7.178,22.8Z"/><path class="cls-12" d="M8.155,19.676a12.483,12.483,0,0,1,.228-1.667,10.089,10.089,0,0,1,.581-1.381c-.295.2-.957.419-1.051.781a7.418,7.418,0,0,0,.014,2.141C7.928,19.59,8.066,19.629,8.155,19.676Z"/><path class="cls-12" d="M12.678,23.775a1.937,1.937,0,0,0-.38.4,5.065,5.065,0,0,0-.3.561c.765-.67,1.468-1.284,2.169-1.9a.176.176,0,0,0,.056-.113c.04-.767.076-1.534.113-2.3l-.208-.1c-.115.2-.37.428-.323.59A2.519,2.519,0,0,1,12.678,23.775Z"/><path class="cls-12" d="M25.259,17.525l-.815-2.277A2.568,2.568,0,0,0,25.259,17.525Z"/><path class="cls-12" d="M19.354,17.34a1.172,1.172,0,0,1-1.143-1.231c-.025-.245-.071-.488-.107-.732l-.207-.005-.088,2.438a3.327,3.327,0,0,0,1.572.286c1.049,0,2.257-.193,3-.193h.063c.006-.1-.661-.151-1.042-.235C20.748,17.554,19.976,17.461,19.354,17.34Zm.028.406a3.712,3.712,0,0,1-1.214-.156l.017-.482q.031.04.064.077a1.773,1.773,0,0,0,1.038.5c.1.02.213.04.325.059Z"/><path class="cls-12" d="M22.86,14.594l-1.238,1.928a.235.235,0,0,0,.059.007C22.151,16.529,22.95,15.256,22.86,14.594Z"/><path class="cls-12" d="M31.989,14.318a.925.925,0,0,0,.254-.03c.746-.226,1.476-.5,2.2-.774a.464.464,0,0,0,.229-.324,5.06,5.06,0,0,1-1.735.306,2.92,2.92,0,0,1-1.605-.381,4.438,4.438,0,0,0,.234,1.1C31.6,14.279,31.8,14.318,31.989,14.318Zm.544-.489q-.2.064-.392.123a.6.6,0,0,1-.152.015.969.969,0,0,1-.149-.011,1.7,1.7,0,0,1-.062-.261A3.879,3.879,0,0,0,32.533,13.83Z"/><path class="cls-12" d="M5.138,13.891c-.183-.192-.335-.5-.554-.555a11.473,11.473,0,0,0-1.565-.217,6.441,6.441,0,0,0,1.081.273,4.483,4.483,0,0,1,.962.561Z"/><path class="cls-12" d="M23.405,21.174c.012.01.012.013.008.013l-.017,0s0,0,.008.013a.625.625,0,0,0,.3.081c.832,0,1.388-1.929,2.111-2.728a.225.225,0,0,0-.158-.071C25.082,18.479,24.3,20.946,23.405,21.174Z"/><path class="cls-12" d="M30.993,12.926c-.328-.473-.64-.956-.99-1.415-.481-.63-.991-1.241-1.367-1.71.343,1.022.754,2.17,1.1,3.333a1.22,1.22,0,0,1-.184.82,4.588,4.588,0,0,1-.613.738l.1.155,1.764-.395.04.762A15.993,15.993,0,0,0,31.028,13,.145.145,0,0,0,30.993,12.926Zm-.375,1.208-.643.144-.256.057a1.787,1.787,0,0,0,.137-.215,1.532,1.532,0,0,0,.211-1.085c-.146-.5-.3-.987-.464-1.468l.121.157c.239.313.466.648.685.971.086.127.175.258.264.387C30.662,13.417,30.647,13.773,30.618,14.134Z"/><path class="cls-12" d="M27.119,11.973l-.041.062c.492.576,1.7-.063,1.845,1.1L29.108,13c-.178-.274-.292-.67-.549-.794A7.057,7.057,0,0,0,27.119,11.973Z"/><path class="cls-12" d="M27.316,17.535c.11.141.266.294.323.294h.009c.1-.041.25-.017.252-.221a.763.763,0,0,1-.608-.6S27.2,17.385,27.316,17.535Z"/><path class="cls-12" d="M23.874,18.617c-.434.856-.926,1.685-1.406,2.518a.523.523,0,0,1-.29.239c-.7.163-1.4.3-2.132.458a2.372,2.372,0,0,0,.831.14,2.2,2.2,0,0,0,1.785-.747,25.579,25.579,0,0,0,1.595-2.736c.113-.226-.119-.612-.18-.869A3.774,3.774,0,0,1,23.874,18.617Z"/><path class="cls-12" d="M4.089,13.379a6.441,6.441,0,0,1-1.081-.273,11.472,11.472,0,0,1,1.565.217c.219.059.371.362.554.555l-.077.063A4.483,4.483,0,0,0,4.089,13.379Zm25.9-1.881c.35.459.662.942.99,1.415a.145.145,0,0,1,.035.072,15.993,15.993,0,0,1-.192,2.216l-.04-.762-1.764.395-.1-.155a4.587,4.587,0,0,0,.613-.738,1.22,1.22,0,0,0,.184-.82c-.342-1.163-.753-2.311-1.1-3.333C29,10.256,29.513,10.867,29.994,11.5Zm-1.444.7c.257.123.371.519.549.794l-.185.138c-.145-1.165-1.353-.526-1.845-1.1l.041-.062A7.057,7.057,0,0,1,28.55,12.193ZM21.172,4.149c1.684-.009,6.5,4.019,6.806,5.683a21.167,21.167,0,0,0-6.853-4.9C20.918,4.749,21.026,4.325,21.172,4.149ZM7.9,17.4c.094-.362.757-.577,1.051-.781A10.089,10.089,0,0,0,8.372,18a12.483,12.483,0,0,0-.228,1.667c-.089-.047-.227-.086-.228-.126A7.419,7.419,0,0,1,7.9,17.4ZM7.168,22.79a1.263,1.263,0,0,1,.075-.608c.681-.608,1.187-1.067,1.868-1.675.018.019.626-.242.644-.223C9.109,20.926,7.814,22.149,7.168,22.79Zm3.573-5.282-.205,0a25.506,25.506,0,0,1-.08-2.847,3.018,3.018,0,0,1,.611-1.474c.759-1.033,1.607-2.008,2.443-3.036a9.48,9.48,0,0,1-1.522,3.878A6.774,6.774,0,0,0,10.741,17.509Zm3.416,5.313c-.7.617-1.4,1.231-2.169,1.9a5.065,5.065,0,0,1,.3-.561,1.937,1.937,0,0,1,.38-.4,2.519,2.519,0,0,0,1.126-2.86c-.046-.163.208-.392.323-.59l.208.1c-.037.767-.073,1.535-.113,2.3A.176.176,0,0,1,14.157,22.822Zm-3.477-3.61c.339.017.68.022,1.018.053,1.246.117,2.491.243,3.736.366.1.01.2.024.312.038C15.281,20.153,11.456,19.911,10.68,19.211ZM17.8,17.8l.088-2.438.207.005c.036.244.082.487.107.732a1.172,1.172,0,0,0,1.143,1.231c.622.121,1.394.214,2.047.328.381.084,1.048.135,1.042.235C21.274,17.87,18.84,18.39,17.8,17.8Zm3.813-1.288L22.85,14.58C22.944,15.271,22.071,16.626,21.612,16.508Zm1.04,4.7a2.45,2.45,0,0,1-2.616.607c.734-.155,1.437-.3,2.132-.458a.523.523,0,0,0,.29-.239c.481-.833.973-1.662,1.406-2.518a3.774,3.774,0,0,0,.2-1c.06.257.293.643.18.869A25.578,25.578,0,0,1,22.652,21.212Zm1.782-5.978.815,2.277A2.568,2.568,0,0,1,24.434,15.234Zm-1.041,5.949c-.037-.031.039.008,0-.023.985-.25,1.823-3.185,2.407-2.624C25,19.427,24.4,21.721,23.394,21.183Zm3.9-6.854a5.42,5.42,0,0,1-1.862-.761c-1.26-.972-1.012-2.277.47-2.89.273-.113.571-.175.942-.285-.434.722-1.152,1.267.142,1.941.128.066.275.167.422.24.278.138.731.219.8.414a1.492,1.492,0,0,1-.049,1.1A.98.98,0,0,1,27.291,14.329Zm.347,3.484c-.048.019-.216-.143-.332-.292s-.024-.531-.024-.531a.763.763,0,0,0,.608.6C27.887,17.8,27.742,17.772,27.638,17.813Zm2.643,2.608c.107.626-.138.886-.826.82-.047-.065-.072-.6-.121-.669-1.372.032-.685-2.447-.025-3.12-.409-.017-.682-.113-1.107-.13-.855-.562-.484-1.125-.767-1.862l3.4.133c-.007.416.226,1.192-.083,1.593a3.632,3.632,0,0,0-.561,2.132A4.3,4.3,0,0,0,30.281,20.421ZM34.434,13.5c-.726.276-1.455.548-2.2.774-.2.062-.625.025-.676-.077a4.438,4.438,0,0,1-.234-1.1,4.136,4.136,0,0,0,3.34.075A.464.464,0,0,1,34.434,13.5Z"/><path class="cls-12" d="M21.109,10.242a.086.086,0,0,0-.029-.09l-.422-.337.522-.015a.083.083,0,0,0,.077-.059l.165-.519.172.517a.084.084,0,0,0,.077.058l.523.008-.417.342a.086.086,0,0,0-.028.091l.154.531-.425-.311a.082.082,0,0,0-.1,0l-.42.317Z"/><path class="cls-12" d="M21.513,9.116h0m-.09.282.119.359a.138.138,0,0,0,.128.095l.374.006-.3.248a.14.14,0,0,0-.045.148l.11.378-.3-.217a.135.135,0,0,0-.081-.026.137.137,0,0,0-.082.027l-.293.221.1-.379a.14.14,0,0,0-.047-.147l-.306-.244.374-.011a.138.138,0,0,0,.127-.1l.115-.36m0-.324a.012.012,0,0,0-.012.009l-.2.642a.029.029,0,0,1-.026.021l-.635.018a.013.013,0,0,0-.007.024l.509.407a.032.032,0,0,1,.01.033l-.18.651a.013.013,0,0,0,.012.017l.007,0,.519-.391a.027.027,0,0,1,.033,0l.524.384.007,0a.013.013,0,0,0,.012-.017l-.188-.648a.032.032,0,0,1,.01-.033l.5-.413a.013.013,0,0,0-.007-.023l-.636-.01a.029.029,0,0,1-.027-.02l-.213-.64a.012.012,0,0,0-.012-.009Z"/><path class="cls-12" d="M21.613,9.829l.479.007a.01.01,0,0,1,.006.018l-.38.311a.024.024,0,0,0-.007.025l.142.489a.009.009,0,0,1-.014.011l-.4-.29a.021.021,0,0,0-.025,0l-.391.295a.009.009,0,0,1-.014-.011l.135-.49a.024.024,0,0,0-.008-.025l-.384-.307a.01.01,0,0,1,.005-.018l.479-.013a.022.022,0,0,0,.02-.016l.154-.484a.009.009,0,0,1,.017,0l.161.482A.022.022,0,0,0,21.613,9.829Z"/><path class="cls-12" d="M19.553,11.8a.086.086,0,0,0-.029-.09l-.422-.337.522-.015a.084.084,0,0,0,.077-.059l.165-.519.172.517a.084.084,0,0,0,.077.058l.523.008-.417.342a.086.086,0,0,0-.028.091l.154.531-.425-.311a.082.082,0,0,0-.1,0l-.42.317Z"/><path class="cls-12" d="M19.958,10.669h0m-.09.282.119.359a.138.138,0,0,0,.128.095l.374.006-.3.248a.14.14,0,0,0-.045.148l.11.378-.3-.217a.135.135,0,0,0-.081-.026.137.137,0,0,0-.082.027l-.293.221.1-.379a.14.14,0,0,0-.047-.147l-.306-.244.374-.011a.138.138,0,0,0,.127-.1l.115-.36m0-.324a.012.012,0,0,0-.012.009l-.2.642a.029.029,0,0,1-.026.021l-.635.018a.013.013,0,0,0-.007.024l.509.407a.032.032,0,0,1,.01.033l-.18.651a.013.013,0,0,0,.012.017l.007,0,.519-.391a.027.027,0,0,1,.033,0l.524.384.007,0a.013.013,0,0,0,.012-.017l-.188-.648a.032.032,0,0,1,.01-.033l.5-.413a.013.013,0,0,0-.007-.023l-.636-.01a.029.029,0,0,1-.027-.02l-.213-.64a.012.012,0,0,0-.012-.009Z"/><path class="cls-12" d="M20.057,11.382l.479.007a.01.01,0,0,1,.006.018l-.38.311a.024.024,0,0,0-.007.025l.142.489a.009.009,0,0,1-.014.011l-.4-.29a.021.021,0,0,0-.025,0l-.391.295a.009.009,0,0,1-.014-.011l.135-.49a.024.024,0,0,0-.008-.025l-.384-.307a.01.01,0,0,1,.005-.018l.479-.013a.022.022,0,0,0,.02-.016l.154-.484a.009.009,0,0,1,.017,0l.161.482A.022.022,0,0,0,20.057,11.382Z"/><path class="cls-12" d="M17.625,12.85a.086.086,0,0,0-.029-.09l-.422-.337.522-.015a.083.083,0,0,0,.077-.059l.165-.519.172.517a.084.084,0,0,0,.077.058l.523.008-.417.342a.086.086,0,0,0-.028.091l.154.531L18,13.066a.082.082,0,0,0-.1,0l-.42.317Z"/><path class="cls-12" d="M18.029,11.724h0m-.09.282.119.359a.138.138,0,0,0,.128.095l.374.006-.3.248a.14.14,0,0,0-.045.148l.11.378-.3-.217A.135.135,0,0,0,17.947,13a.137.137,0,0,0-.082.027l-.293.221.1-.379a.14.14,0,0,0-.047-.147l-.306-.244.374-.011a.138.138,0,0,0,.127-.1l.115-.36m0-.324a.012.012,0,0,0-.012.009l-.2.642a.029.029,0,0,1-.026.021l-.635.018a.013.013,0,0,0-.007.024l.509.407a.032.032,0,0,1,.01.033l-.18.651a.013.013,0,0,0,.012.017l.007,0,.519-.391a.027.027,0,0,1,.033,0l.524.384.007,0a.013.013,0,0,0,.012-.017l-.188-.648a.032.032,0,0,1,.01-.033l.5-.413a.013.013,0,0,0-.007-.023l-.636-.01a.029.029,0,0,1-.027-.02l-.213-.64a.012.012,0,0,0-.012-.009Z"/><path class="cls-12" d="M18.129,12.436l.479.007a.01.01,0,0,1,.006.018l-.38.311a.024.024,0,0,0-.007.025l.142.489a.009.009,0,0,1-.014.011l-.4-.29a.021.021,0,0,0-.025,0l-.391.295a.009.009,0,0,1-.014-.011l.135-.49a.024.024,0,0,0-.008-.025l-.384-.307a.01.01,0,0,1,.005-.018l.479-.013a.022.022,0,0,0,.02-.016l.154-.484a.009.009,0,0,1,.017,0l.161.482A.022.022,0,0,0,18.129,12.436Z"/><path class="cls-12" d="M15.085,11.59a.086.086,0,0,0-.029-.09l-.422-.337.522-.015a.083.083,0,0,0,.077-.059l.165-.519.172.517a.084.084,0,0,0,.077.058l.523.008-.417.342a.086.086,0,0,0-.028.091l.154.531-.425-.311a.082.082,0,0,0-.1,0l-.42.317Z"/><path class="cls-12" d="M15.49,10.464h0m-.09.282.119.359a.138.138,0,0,0,.128.095l.374.006-.3.248a.14.14,0,0,0-.045.148l.11.378-.3-.217a.135.135,0,0,0-.081-.026.137.137,0,0,0-.082.027l-.293.221.1-.379a.14.14,0,0,0-.047-.147l-.306-.244.374-.011a.138.138,0,0,0,.127-.1l.115-.36m0-.324a.012.012,0,0,0-.012.009l-.2.642a.029.029,0,0,1-.026.021l-.635.018a.013.013,0,0,0-.007.024l.509.407a.032.032,0,0,1,.01.033l-.18.651a.013.013,0,0,0,.012.017l.007,0,.519-.391a.027.027,0,0,1,.033,0l.524.384.007,0a.013.013,0,0,0,.012-.017l-.188-.648a.032.032,0,0,1,.01-.033l.5-.413a.013.013,0,0,0-.007-.023l-.636-.01a.029.029,0,0,1-.027-.02l-.213-.64a.012.012,0,0,0-.012-.009Z"/><path class="cls-12" d="M15.589,11.176l.479.007a.01.01,0,0,1,.006.018l-.38.311a.024.024,0,0,0-.007.025l.142.489a.009.009,0,0,1-.014.011l-.4-.29a.021.021,0,0,0-.025,0L15,12.043a.009.009,0,0,1-.014-.011l.135-.49a.024.024,0,0,0-.008-.025l-.384-.307a.01.01,0,0,1,.005-.018l.479-.013a.022.022,0,0,0,.02-.016l.154-.484a.009.009,0,0,1,.017,0l.161.482A.022.022,0,0,0,15.589,11.176Z"/><path class="cls-12" d="M17.178,10.816a.086.086,0,0,0-.029-.09l-.422-.337.522-.015a.083.083,0,0,0,.077-.059l.165-.519.172.517a.084.084,0,0,0,.077.058l.523.008-.417.342a.086.086,0,0,0-.028.091l.154.531-.425-.311a.082.082,0,0,0-.1,0l-.42.317Z"/><path class="cls-12" d="M17.582,9.689h0m-.09.282.119.359a.138.138,0,0,0,.128.095l.374.006-.3.248a.14.14,0,0,0-.045.148l.11.378-.3-.217a.135.135,0,0,0-.081-.026.137.137,0,0,0-.082.027l-.293.221.1-.379a.14.14,0,0,0-.047-.147l-.306-.244.374-.011a.138.138,0,0,0,.127-.1l.115-.36m0-.324a.012.012,0,0,0-.012.009l-.2.642a.029.029,0,0,1-.026.021l-.635.018a.013.013,0,0,0-.007.024l.509.407a.032.032,0,0,1,.01.033l-.18.651a.013.013,0,0,0,.012.017l.007,0,.519-.391a.027.027,0,0,1,.033,0l.524.384.007,0a.013.013,0,0,0,.012-.017l-.188-.648a.032.032,0,0,1,.01-.033l.5-.413a.013.013,0,0,0-.007-.023l-.636-.01a.029.029,0,0,1-.027-.02l-.213-.64a.012.012,0,0,0-.012-.009Z"/><path class="cls-12" d="M17.682,10.4l.479.007a.01.01,0,0,1,.006.018l-.38.311a.024.024,0,0,0-.007.025l.142.489a.009.009,0,0,1-.014.011l-.4-.29a.021.021,0,0,0-.025,0l-.391.295a.009.009,0,0,1-.014-.011l.135-.49a.024.024,0,0,0-.008-.025l-.384-.307a.01.01,0,0,1,.005-.018l.479-.013a.022.022,0,0,0,.02-.016l.154-.484a.009.009,0,0,1,.017,0l.161.482A.022.022,0,0,0,17.682,10.4Z"/><path class="cls-12" d="M19.119,9.62a.086.086,0,0,0-.029-.09l-.422-.337.522-.015a.083.083,0,0,0,.077-.059l.165-.519.172.517a.084.084,0,0,0,.077.058l.523.008-.417.342a.086.086,0,0,0-.028.091l.154.531-.425-.311a.082.082,0,0,0-.1,0l-.42.317Z"/><path class="cls-12" d="M19.524,8.493h0m-.09.282.119.359a.138.138,0,0,0,.128.095l.374.006-.3.248a.14.14,0,0,0-.045.148l.11.378-.3-.217a.135.135,0,0,0-.081-.026.137.137,0,0,0-.082.027l-.293.221.1-.379a.14.14,0,0,0-.047-.147l-.306-.244.374-.011a.138.138,0,0,0,.127-.1l.115-.36m0-.324a.012.012,0,0,0-.012.009l-.2.642a.029.029,0,0,1-.026.021l-.635.018a.013.013,0,0,0-.007.024l.509.407a.032.032,0,0,1,.01.033l-.18.651a.013.013,0,0,0,.012.017l.007,0,.519-.391a.027.027,0,0,1,.033,0l.524.384.007,0A.013.013,0,0,0,20,10.249L19.813,9.6a.032.032,0,0,1,.01-.033l.5-.413a.013.013,0,0,0-.007-.023l-.636-.01a.029.029,0,0,1-.027-.02l-.213-.64a.012.012,0,0,0-.012-.009Z"/><path class="cls-12" d="M19.624,9.206l.479.007a.01.01,0,0,1,.006.018l-.38.311a.024.024,0,0,0-.007.025l.142.489a.009.009,0,0,1-.014.011l-.4-.29a.021.021,0,0,0-.025,0l-.391.295a.009.009,0,0,1-.014-.011l.135-.49a.024.024,0,0,0-.008-.025l-.384-.307a.01.01,0,0,1,.005-.018l.479-.013a.022.022,0,0,0,.02-.016l.154-.484a.009.009,0,0,1,.017,0l.161.482A.022.022,0,0,0,19.624,9.206Z"/><path class="cls-12" d="M20.616,8.052a.086.086,0,0,0-.029-.09l-.422-.337.522-.015a.083.083,0,0,0,.077-.059l.165-.519.172.517a.084.084,0,0,0,.077.058l.523.008-.417.342a.086.086,0,0,0-.028.091l.154.531-.425-.311a.082.082,0,0,0-.1,0l-.42.317Z"/><path class="cls-12" d="M21.021,6.925h0m-.09.282.119.359a.138.138,0,0,0,.128.095l.374.006-.3.248a.14.14,0,0,0-.045.148l.11.378-.3-.217a.135.135,0,0,0-.081-.026.137.137,0,0,0-.082.027l-.293.221.1-.379a.14.14,0,0,0-.047-.147l-.306-.244.374-.011a.138.138,0,0,0,.127-.1l.115-.36m0-.324a.012.012,0,0,0-.012.009l-.2.642a.029.029,0,0,1-.026.021l-.635.018a.013.013,0,0,0-.007.024L20.554,8a.032.032,0,0,1,.01.033l-.18.651A.013.013,0,0,0,20.4,8.7l.007,0,.519-.391a.027.027,0,0,1,.033,0l.524.384.007,0a.013.013,0,0,0,.012-.017l-.188-.648A.032.032,0,0,1,21.32,8l.5-.413a.013.013,0,0,0-.007-.023l-.636-.01a.029.029,0,0,1-.027-.02l-.213-.64a.012.012,0,0,0-.012-.009Z"/><path class="cls-12" d="M21.121,7.638l.479.007a.01.01,0,0,1,.006.018l-.38.311A.024.024,0,0,0,21.218,8l.142.489a.009.009,0,0,1-.014.011l-.4-.29a.021.021,0,0,0-.025,0l-.391.295a.009.009,0,0,1-.014-.011L20.656,8a.024.024,0,0,0-.008-.025l-.384-.307a.01.01,0,0,1,.005-.018l.479-.013a.022.022,0,0,0,.02-.016l.154-.484a.009.009,0,0,1,.017,0l.161.482A.022.022,0,0,0,21.121,7.638Z"/><path class="cls-13" d="M40.341,16.989a2.854,2.854,0,0,0-1.951-.548H36.479a.732.732,0,0,1-.434-.1c-.023-.019-.085-.069-.085-.257a.467.467,0,0,1,.122-.376.969.969,0,0,1,.6-.129h4.137a.157.157,0,0,0,.157-.157V13.728a.157.157,0,0,0-.157-.157H36.469a3.082,3.082,0,0,0-2.093.6,2.393,2.393,0,0,0-.711,1.894,2.253,2.253,0,0,0,.685,1.795,2.957,2.957,0,0,0,1.993.57h1.706a.948.948,0,0,1,.549.1c.071.056.082.215.082.3,0,.142-.03.235-.088.277a1.191,1.191,0,0,1-.642.107H33.823a.157.157,0,0,0-.157.157v1.694a.157.157,0,0,0,.157.157H38.18a3.1,3.1,0,0,0,2.078-.592,2.323,2.323,0,0,0,.716-1.856A2.293,2.293,0,0,0,40.341,16.989Z"/><path class="cls-13" d="M47.625,13.973a2.429,2.429,0,0,0-.9-.314,8.056,8.056,0,0,0-1.334-.088H42.025a.157.157,0,0,0-.157.157v7.34a.157.157,0,0,0,.157.157h1.914a.157.157,0,0,0,.157-.157V18.823h1.36a6.783,6.783,0,0,0,1.427-.11,2.564,2.564,0,0,0,.915-.4,2.176,2.176,0,0,0,.727-.89,2.992,2.992,0,0,0,.23-1.218,2.87,2.87,0,0,0-.282-1.289A2.343,2.343,0,0,0,47.625,13.973ZM44.1,15.737a.157.157,0,0,1,.157-.157h1.124a1.461,1.461,0,0,1,.834.154.564.564,0,0,1,.153.468.516.516,0,0,1-.168.456,1.233,1.233,0,0,1-.73.166H44.254a.157.157,0,0,1-.157-.157Z"/><path class="cls-13" d="M53.138,13.435a3.852,3.852,0,0,0-2.861.982,4.016,4.016,0,0,0-.96,2.911,4.312,4.312,0,0,0,.938,3.036,3.8,3.8,0,0,0,2.882,1.007,3.805,3.805,0,0,0,2.869-1,4.175,4.175,0,0,0,.947-2.972,4.158,4.158,0,0,0-.948-2.968A3.817,3.817,0,0,0,53.138,13.435Zm1.088,5.529a1.281,1.281,0,0,1-1.088.435,1.267,1.267,0,0,1-1.09-.435,2.773,2.773,0,0,1-.367-1.626,2.443,2.443,0,0,1,.375-1.509,1.578,1.578,0,0,1,2.17,0A2.592,2.592,0,0,1,54.6,17.4,2.592,2.592,0,0,1,54.226,18.964Z"/><path class="cls-13" d="M64.917,20.987,63.5,18.621a.158.158,0,0,1,.056-.217q.075-.045.146-.1a2.176,2.176,0,0,0,.727-.89,2.992,2.992,0,0,0,.23-1.218,2.87,2.87,0,0,0-.282-1.289,2.343,2.343,0,0,0-.849-.939,2.429,2.429,0,0,0-.9-.314,8.056,8.056,0,0,0-1.334-.088H57.931a.157.157,0,0,0-.157.157v7.34a.157.157,0,0,0,.157.157h1.914A.157.157,0,0,0,60,21.068V18.98a.157.157,0,0,1,.157-.157h.913a.157.157,0,0,1,.137.08l1.256,2.241a.157.157,0,0,0,.137.08h2.178A.157.157,0,0,0,64.917,20.987ZM60,15.742a.163.163,0,0,1,.163-.163h1.118a1.461,1.461,0,0,1,.834.154.564.564,0,0,1,.153.468.516.516,0,0,1-.168.456,1.233,1.233,0,0,1-.73.166H60.165A.163.163,0,0,1,60,16.661Z"/><path class="cls-13" d="M65.274,15.561H67.18a.157.157,0,0,1,.157.157v5.35a.157.157,0,0,0,.157.157H69.46a.157.157,0,0,0,.157-.157v-5.35a.157.157,0,0,1,.157-.157h1.915a.157.157,0,0,0,.157-.157V13.737a.157.157,0,0,0-.157-.157H65.274a.157.157,0,0,0-.157.157V15.4A.157.157,0,0,0,65.274,15.561Z"/><path class="cls-13" d="M79.194,16.989a2.854,2.854,0,0,0-1.951-.548H75.331a.732.732,0,0,1-.434-.1c-.023-.019-.085-.069-.085-.257a.467.467,0,0,1,.121-.376.969.969,0,0,1,.6-.129H79.67a.157.157,0,0,0,.157-.157V13.728a.157.157,0,0,0-.157-.157H75.322a3.081,3.081,0,0,0-2.093.6,2.393,2.393,0,0,0-.711,1.894,2.253,2.253,0,0,0,.685,1.795,2.956,2.956,0,0,0,1.993.57H76.9a.949.949,0,0,1,.549.1c.071.056.082.215.082.3,0,.142-.029.235-.088.277a1.191,1.191,0,0,1-.642.107H72.675a.157.157,0,0,0-.157.157v1.694a.157.157,0,0,0,.157.157h4.357a3.1,3.1,0,0,0,2.078-.592,2.323,2.323,0,0,0,.716-1.856A2.293,2.293,0,0,0,79.194,16.989Z"/><path d="M36.129,22.65a1,1,0,0,0-.89.393,2.333,2.333,0,0,0-.272,1.291,1.763,1.763,0,0,0,.261,1.1,1.107,1.107,0,0,0,.9.319h1.549a.087.087,0,0,1,.087.087v.651a.087.087,0,0,1-.087.087h-1.6a3.191,3.191,0,0,1-.876-.095,1.746,1.746,0,0,1-.6-.32,1.764,1.764,0,0,1-.546-.755,3.053,3.053,0,0,1-.182-1.112,2.686,2.686,0,0,1,.544-1.853,2.175,2.175,0,0,1,1.687-.6h1.568a.087.087,0,0,1,.087.087v.635a.087.087,0,0,1-.087.087Z"/><path d="M38.189,24.16a2.5,2.5,0,0,1,.584-1.816,2.942,2.942,0,0,1,3.558.006,2.6,2.6,0,0,1,.577,1.858,2.612,2.612,0,0,1-.577,1.861,2.928,2.928,0,0,1-3.57,0A2.707,2.707,0,0,1,38.189,24.16Zm2.361-1.6a1.147,1.147,0,0,0-.957.4,1.922,1.922,0,0,0-.317,1.207,2.142,2.142,0,0,0,.307,1.283,1.35,1.35,0,0,0,1.929,0,2.022,2.022,0,0,0,.313-1.244,2.021,2.021,0,0,0-.313-1.246A1.145,1.145,0,0,0,40.551,22.56Z"/><path d="M43.678,21.842h1.312a.087.087,0,0,1,.082.059l1.145,3.445a.045.045,0,0,0,.085,0L47.448,21.9a.087.087,0,0,1,.082-.059h1.306a.087.087,0,0,1,.087.087v4.559a.087.087,0,0,1-.087.087h-.8a.087.087,0,0,1-.087-.089l.072-3.3a.045.045,0,0,0-.087-.015l-1.1,3.342a.087.087,0,0,1-.082.06h-.931a.087.087,0,0,1-.082-.059L44.6,23.133a.045.045,0,0,0-.087.015l.089,3.338a.087.087,0,0,1-.087.089h-.838a.087.087,0,0,1-.087-.087V21.929A.087.087,0,0,1,43.678,21.842Z"/><path d="M49.988,21.842H51.3a.087.087,0,0,1,.082.059l1.145,3.445a.045.045,0,0,0,.085,0L53.758,21.9a.087.087,0,0,1,.082-.059h1.306a.087.087,0,0,1,.087.087v4.559a.087.087,0,0,1-.087.087h-.8a.087.087,0,0,1-.087-.089l.072-3.3a.045.045,0,0,0-.087-.015l-1.1,3.342a.087.087,0,0,1-.082.06h-.993l-1.157-3.442a.045.045,0,0,0-.087.015l.089,3.338a.087.087,0,0,1-.087.089h-.838a.087.087,0,0,1-.087-.087V21.929A.087.087,0,0,1,49.988,21.842Z"/><path d="M57.171,26.575H56.3a.087.087,0,0,1-.087-.087V21.929a.087.087,0,0,1,.087-.087h.867a.087.087,0,0,1,.087.087v4.559A.087.087,0,0,1,57.171,26.575Z"/><path d="M62.245,22.6a.087.087,0,0,1-.087.087H59.785a.927.927,0,0,0-.581.148.566.566,0,0,0-.185.47.469.469,0,0,0,.158.386.731.731,0,0,0,.47.129h1.317a1.74,1.74,0,0,1,1.164.309,1.324,1.324,0,0,1,.346,1.03,1.341,1.341,0,0,1-.4,1.074,1.9,1.9,0,0,1-1.256.343H58.256a.087.087,0,0,1-.087-.087v-.67a.087.087,0,0,1,.087-.087h2.405a1.073,1.073,0,0,0,.6-.124.469.469,0,0,0,.174-.41.506.506,0,0,0-.159-.422.9.9,0,0,0-.546-.126H59.554a1.806,1.806,0,0,1-1.2-.327,1.293,1.293,0,0,1-.378-1.032,1.389,1.389,0,0,1,.4-1.1,1.893,1.893,0,0,1,1.264-.348h2.518a.087.087,0,0,1,.087.087Z"/><path d="M67.345,22.6a.087.087,0,0,1-.087.087H64.885a.927.927,0,0,0-.581.148.566.566,0,0,0-.185.47.469.469,0,0,0,.158.386.731.731,0,0,0,.47.129h1.317a1.74,1.74,0,0,1,1.164.309,1.324,1.324,0,0,1,.346,1.03,1.341,1.341,0,0,1-.4,1.074,1.9,1.9,0,0,1-1.256.343H63.355a.087.087,0,0,1-.087-.087v-.67a.087.087,0,0,1,.087-.087h2.405a1.073,1.073,0,0,0,.6-.124.469.469,0,0,0,.174-.41.506.506,0,0,0-.159-.422.9.9,0,0,0-.546-.126H64.653a1.806,1.806,0,0,1-1.2-.327,1.293,1.293,0,0,1-.378-1.032,1.389,1.389,0,0,1,.4-1.1,1.893,1.893,0,0,1,1.264-.348h2.518a.087.087,0,0,1,.087.087Z"/><path d="M69.28,26.575h-.867a.087.087,0,0,1-.087-.087V21.929a.087.087,0,0,1,.087-.087h.867a.087.087,0,0,1,.087.087v4.559A.087.087,0,0,1,69.28,26.575Z"/><path d="M70.046,24.16a2.5,2.5,0,0,1,.584-1.816,2.942,2.942,0,0,1,3.558.006,2.6,2.6,0,0,1,.577,1.858,2.612,2.612,0,0,1-.577,1.861,2.928,2.928,0,0,1-3.57,0A2.707,2.707,0,0,1,70.046,24.16Zm2.361-1.6a1.147,1.147,0,0,0-.957.4,1.922,1.922,0,0,0-.317,1.207,2.142,2.142,0,0,0,.307,1.283,1.35,1.35,0,0,0,1.929,0,2.022,2.022,0,0,0,.314-1.244,2.021,2.021,0,0,0-.314-1.246A1.145,1.145,0,0,0,72.407,22.56Z"/><path d="M75.535,21.842h1.122a.087.087,0,0,1,.075.044l1.819,3.191a.049.049,0,0,0,.091-.025L78.6,21.93a.087.087,0,0,1,.087-.088h.843a.087.087,0,0,1,.087.087v4.559a.087.087,0,0,1-.087.087H78.508a.087.087,0,0,1-.075-.044l-1.912-3.364a.051.051,0,0,0-.1.026l.041,3.295a.087.087,0,0,1-.087.088h-.846a.087.087,0,0,1-.087-.087V21.929A.087.087,0,0,1,75.535,21.842Z"/><path d="M34.294,5.752a.2.2,0,0,1,.192-.2h2.523a3.725,3.725,0,1,1,0,7.451H34.485a.2.2,0,0,1-.192-.2ZM36.88,11.7a2.35,2.35,0,0,0,2.395-2.438A2.347,2.347,0,0,0,36.88,6.838H35.667V11.7Z"/><path d="M41.936,5.752a.209.209,0,0,1,.2-.2h1.011a.2.2,0,0,1,.2.2v4.353a1.55,1.55,0,1,0,3.1.011V5.752a.2.2,0,0,1,.2-.2h1.011a.21.21,0,0,1,.2.2V10.18a2.965,2.965,0,0,1-5.929,0Z"/><path d="M49.375,5.752a.2.2,0,0,1,.2-.2h3.044a2.306,2.306,0,0,1,2.32,2.289,2.349,2.349,0,0,1-1.575,2.15l1.458,2.7a.2.2,0,0,1-.181.309H53.526a.183.183,0,0,1-.17-.1L51.94,10.084H50.759V12.8a.209.209,0,0,1-.2.2h-.979a.2.2,0,0,1-.2-.2ZM52.5,8.945A1.084,1.084,0,0,0,53.558,7.86,1.059,1.059,0,0,0,52.5,6.827H50.77V8.945Z"/><path d="M56.357,5.752a.21.21,0,0,1,.2-.2h.99a.2.2,0,0,1,.2.2V8.573h3.47V5.752a.2.2,0,0,1,.2-.2H62.4a.21.21,0,0,1,.2.2V12.8a.209.209,0,0,1-.2.2h-.979a.2.2,0,0,1-.2-.2V9.861h-3.47V12.8a.2.2,0,0,1-.2.2h-.99a.209.209,0,0,1-.2-.2Z"/><path d="M63.679,12.724,66.99,5.56a.192.192,0,0,1,.181-.117h.106a.181.181,0,0,1,.181.117l3.278,7.163a.188.188,0,0,1-.181.277h-.926a.306.306,0,0,1-.309-.213L68.8,11.638H65.617L65.1,12.788a.321.321,0,0,1-.309.213H63.86A.188.188,0,0,1,63.679,12.724Zm4.6-2.267L67.213,8.115h-.032l-1.043,2.342Z"/><path d="M72.907,5.6a.179.179,0,0,1,.191-.16h.17a.2.2,0,0,1,.181.106l2.342,5.024h.032L78.165,5.55a.184.184,0,0,1,.181-.106h.17a.179.179,0,0,1,.191.16l1.256,7.153a.185.185,0,0,1-.191.245H78.8a.231.231,0,0,1-.2-.16l-.628-4.034h-.032L76.079,12.99a.181.181,0,0,1-.181.117h-.192a.191.191,0,0,1-.181-.117L73.642,8.807H73.61l-.617,4.034A.206.206,0,0,1,72.8,13h-.958a.2.2,0,0,1-.2-.245Z"/><path d="M81.047,25.931h-.195v-.137h.53v.137h-.195v.538h-.141Z"/><path d="M81.208,26.49h-.182v-.538h-.195v-.178H81.4v.178h-.195Zm-.141-.041h.1V25.91h.195v-.1h-.489v.1h.195Z"/><path d="M81.454,25.794h.152l.168.286.168-.286h.152v.675h-.14v-.441l-.18.289h0l-.178-.286v.438h-.138Z"/><path d="M82.115,26.49h-.181V26.1l-.148.237h-.026l-.146-.235v.387h-.179v-.717h.184l.157.266.157-.266h.184Zm-.14-.041h.1v-.634h-.12l-.18.306-.18-.306h-.12v.634h.1V25.96l.2.321.2-.324Z"/></g></g></svg>